# xmcd
#
# Track frame offsets: 
#        150
#        9407
#        17977
#        29065
#        39667
#        48560
#        63725
#        76275
#        89545
#        98880
#        109380
#        118655
#        131977
#        144287
#        158457
#        169315
#        181090
#        193792
#
# Disc length: 2774 seconds
#
# Revision: 7
# Processed by: cddbd v1.5.2PL0 Copyright (c) Steve Scherf et al.
# Submitted via: ExactAudioCopy v1.0b4
#
DISCID=fd0ad412
DTITLE=Various Artist - Country's Greatest 3CD - CD3
DYEAR=1997
DGENRE=Country
TTITLE0=Frankie Lane - Rawhide (1959)
TTITLE1=Johnny Cash - Country boy (1955-1957)
TTITLE2=Hank Locklin - Send me the pillow (1949)
TTITLE3=Faron Young - If you ain´t lovin´ (1954)
TTITLE4=Ferlin Husky - Wings of a dove (1960)
TTITLE5=John Anderson - Country comfort (1993 Cover Elton John 1970)
TTITLE6=Bobby Bare - The year that Clayton Delaney died (1974 Cover To
TTITLE6=m T. Hall 1971)
TTITLE7=Freddy Fender - The girl who waits on tables (1984 Robert Mils
TTITLE7=up 1973)
TTITLE8=The Harden Trio - Tippytoeing (1966)
TTITLE9=Waylon Jennings - White lightnin´ (1958)
TTITLE10=Robert Glynn "Bob" Luman - Let´s think about living (1960)
TTITLE11=George Morgan - Red Rose from the blue side of town (?)
TTITLE12=George Jones - She thinks I still care (1962 Cover Connie Fra
TTITLE12=ncis 1962)
TTITLE13=Willie Nelson - Will you remember mine? (1978)
TTITLE14=Don Williams - Some time with me (1977?)
TTITLE15=Buck Owens - Foolin´ around (1961)
TTITLE16=Gene Autry - Back in the saddle again (1939)
TTITLE17=Glen Campbell - Rhinestone cowboy (live 1975 Cover Larry Weis
TTITLE17=s 1974)
EXTD=
EXTT0=
EXTT1=
EXTT2=
EXTT3=
EXTT4=
EXTT5=
EXTT6=
EXTT7=
EXTT8=
EXTT9=
EXTT10=
EXTT11=
EXTT12=
EXTT13=
EXTT14=
EXTT15=
EXTT16=
EXTT17=
PLAYORDER=
